<svg width="33" height="33" viewBox="0 0 33 33" fill="none" xmlns="http://www.w3.org/2000/svg">
    <path d="M16.5 4.59033C23.1273 4.59033 28.5 9.96306 28.5 16.5903C28.5 21.9183 25.026 26.4331 20.2205 27.9991C20.2216 27.9947 20.2238 27.9876 20.2238 27.9876C20.2238 27.9876 19.4138 27.608 19.4313 26.9305C19.4504 26.1849 19.4313 24.4454 19.4313 23.8067C19.4313 22.7103 18.7375 21.9336 18.7375 21.9336C18.7375 21.9336 24.1795 21.9947 24.1795 16.1883C24.1795 13.9481 23.0084 12.782 23.0084 12.782C23.0084 12.782 23.6236 10.3902 22.7956 9.3756C21.8678 9.27524 20.2053 10.2625 19.4956 10.724C19.4956 10.724 18.3709 10.2625 16.5 10.2625C14.6291 10.2625 13.5044 10.724 13.5044 10.724C12.7947 10.2625 11.1327 9.27524 10.2044 9.3756C9.37636 10.3902 9.99164 12.782 9.99164 12.782C9.99164 12.782 8.82055 13.9476 8.82055 16.1883C8.82055 21.9947 14.2625 21.9336 14.2625 21.9336C14.2625 21.9336 13.7144 22.5532 13.5944 23.4641C13.2147 23.5929 12.6556 23.7521 12.204 23.7521C11.0231 23.7521 10.1247 22.604 9.79527 22.0732C9.47073 21.5496 8.80527 21.11 8.18455 21.11C7.776 21.11 7.57636 21.3145 7.57636 21.548C7.57636 21.7814 8.14909 21.9445 8.52709 22.3776C9.324 23.2907 9.30982 25.3438 12.1495 25.3438C12.4576 25.3438 13.0871 25.268 13.5611 25.2041C13.5584 25.8505 13.5573 26.5329 13.5676 26.9316C13.5845 27.6091 12.7751 27.9887 12.7751 27.9887C12.7751 27.9887 12.7773 27.9952 12.7784 28.0001C7.974 26.4331 4.5 21.9183 4.5 16.5903C4.5 9.96306 9.87273 4.59033 16.5 4.59033Z"
          fill="currentColor"/>
</svg>
