<svg width="33" height="33" viewBox="0 0 33 33" fill="none" xmlns="http://www.w3.org/2000/svg">
    <path d="M11.5641 4.59033C5.01326 4.59033 4.5 5.10299 4.5 11.6544V21.5263C4.5 28.0771 5.01326 28.5903 11.5641 28.5903H21.4359C27.9867 28.5903 28.5 28.0777 28.5 21.5263V11.6544C28.5 5.10299 27.9873 4.59033 21.4359 4.59033H11.5641ZM10.0008 6.99033H22.9992C25.875 6.99033 26.1 7.21531 26.1 10.0911V23.0896C26.1 25.9654 25.8744 26.1903 22.9992 26.1903H10.0008C7.12498 26.1903 6.9 25.9648 6.9 23.0896V10.0911C6.9 7.21531 7.12498 6.99033 10.0008 6.99033ZM10.8012 8.49268C9.82377 8.49268 9.03164 9.28484 9.03164 10.261C9.03164 11.2372 9.82317 12.0306 10.8012 12.0306C11.7762 12.0306 12.5684 11.2378 12.5684 10.261C12.5684 9.28604 11.7762 8.49268 10.8012 8.49268ZM20.0602 13.1837C18.5842 13.1837 17.5941 13.9936 17.1891 14.761H17.1469V13.4274H14.2371V23.1903H17.2688V18.3599C17.2688 17.0861 17.5124 15.8532 19.091 15.8532C20.6474 15.8532 20.6672 17.3109 20.6672 18.4431V23.1903H23.7V17.8349C23.7 15.2057 23.1328 13.1837 20.0602 13.1837ZM9.28359 13.4274V23.1903H12.3176V13.4274H9.28359Z"
          fill="currentColor"/>
</svg>
