<svg width="512" height="512" viewBox="0 0 512 512" fill="none" xmlns="http://www.w3.org/2000/svg">
<mask id="path-1-outside-1_174_4" maskUnits="userSpaceOnUse" x="38" y="164" width="170" height="194" fill="black">
<rect fill="white" x="38" y="164" width="170" height="194"/>
<path d="M107.897 343.258C91.6267 343.258 78.7982 339.607 69.4116 332.307C60.0249 325.006 54.4972 314.889 52.8284 301.956C51.1597 285.686 55.2273 273.275 65.0311 264.723C74.835 255.962 88.8107 250.434 106.958 248.14C109.044 247.931 112.069 247.618 116.032 247.201C120.204 246.575 123.437 246.054 125.732 245.636C128.235 245.219 130.946 244.802 133.867 244.385C136.787 243.968 139.081 243.446 140.75 242.82C142.628 242.195 143.983 241.569 144.818 240.943C146.069 239.9 146.904 238.231 147.321 235.937C147.947 233.642 148.051 231.139 147.634 228.428C147.217 225.507 145.548 222.691 142.628 219.98C139.916 217.268 136.057 215.286 131.051 214.035C121.038 211.532 112.486 212.366 105.394 216.538C98.3016 220.71 93.8169 227.697 91.9396 237.501L55.3316 229.679C58.2519 212.157 69.203 198.077 88.1849 187.439C96.5286 182.641 106.437 179.825 117.909 178.991C129.591 177.948 140.959 179.408 152.014 183.372C179.131 193.593 192.69 211.114 192.69 235.937L193.628 338.564H152.64L151.388 320.73C140.75 335.748 126.253 343.258 107.897 343.258ZM125.732 310.404C135.327 308.527 142.419 304.251 147.008 297.576C151.597 290.692 153.266 283.079 152.014 274.735C146.591 275.569 140.333 276.195 133.241 276.612C126.357 277.03 120.83 277.343 116.658 277.551C112.695 277.76 108.731 278.385 104.768 279.428C101.013 280.263 98.1973 281.827 96.32 284.122C94.6513 286.416 93.8169 289.545 93.8169 293.508C93.8169 300.809 96.7372 305.92 102.578 308.84C108.627 311.76 116.345 312.282 125.732 310.404Z"/>
</mask>
<path d="M107.897 343.258C91.6267 343.258 78.7982 339.607 69.4116 332.307C60.0249 325.006 54.4972 314.889 52.8284 301.956C51.1597 285.686 55.2273 273.275 65.0311 264.723C74.835 255.962 88.8107 250.434 106.958 248.14C109.044 247.931 112.069 247.618 116.032 247.201C120.204 246.575 123.437 246.054 125.732 245.636C128.235 245.219 130.946 244.802 133.867 244.385C136.787 243.968 139.081 243.446 140.75 242.82C142.628 242.195 143.983 241.569 144.818 240.943C146.069 239.9 146.904 238.231 147.321 235.937C147.947 233.642 148.051 231.139 147.634 228.428C147.217 225.507 145.548 222.691 142.628 219.98C139.916 217.268 136.057 215.286 131.051 214.035C121.038 211.532 112.486 212.366 105.394 216.538C98.3016 220.71 93.8169 227.697 91.9396 237.501L55.3316 229.679C58.2519 212.157 69.203 198.077 88.1849 187.439C96.5286 182.641 106.437 179.825 117.909 178.991C129.591 177.948 140.959 179.408 152.014 183.372C179.131 193.593 192.69 211.114 192.69 235.937L193.628 338.564H152.64L151.388 320.73C140.75 335.748 126.253 343.258 107.897 343.258ZM125.732 310.404C135.327 308.527 142.419 304.251 147.008 297.576C151.597 290.692 153.266 283.079 152.014 274.735C146.591 275.569 140.333 276.195 133.241 276.612C126.357 277.03 120.83 277.343 116.658 277.551C112.695 277.76 108.731 278.385 104.768 279.428C101.013 280.263 98.1973 281.827 96.32 284.122C94.6513 286.416 93.8169 289.545 93.8169 293.508C93.8169 300.809 96.7372 305.92 102.578 308.84C108.627 311.76 116.345 312.282 125.732 310.404Z" fill="white"/>
<path d="M69.4116 332.307L60.68 343.533L60.68 343.533L69.4116 332.307ZM52.8284 301.956L38.6804 303.408L38.6994 303.592L38.7232 303.776L52.8284 301.956ZM65.0311 264.723L74.3804 275.44L74.4444 275.384L74.5078 275.328L65.0311 264.723ZM106.958 248.14L105.543 233.988L105.358 234.006L105.174 234.03L106.958 248.14ZM116.032 247.201L117.521 261.345L117.832 261.312L118.142 261.266L116.032 247.201ZM125.732 245.636L123.393 231.608L123.29 231.625L123.187 231.644L125.732 245.636ZM140.75 242.82L136.253 229.328L136.003 229.411L135.756 229.504L140.75 242.82ZM144.818 240.943L153.351 252.321L153.643 252.102L153.923 251.869L144.818 240.943ZM147.321 235.937L133.6 232.195L133.438 232.788L133.328 233.393L147.321 235.937ZM147.634 228.428L133.554 230.439L133.565 230.515L133.577 230.59L147.634 228.428ZM142.628 219.98L132.571 230.036L132.757 230.222L132.95 230.402L142.628 219.98ZM131.051 214.035L127.601 227.832L127.601 227.832L131.051 214.035ZM105.394 216.538L98.1828 204.279L98.1828 204.279L105.394 216.538ZM91.9396 237.501L88.9677 251.41L103.176 254.445L105.908 240.176L91.9396 237.501ZM55.3316 229.679L41.3028 227.341L39.0684 240.747L52.3597 243.587L55.3316 229.679ZM88.1849 187.439L95.1381 199.846L95.2064 199.807L95.2743 199.768L88.1849 187.439ZM117.909 178.991L118.941 193.176L119.058 193.167L119.174 193.157L117.909 178.991ZM152.014 183.372L157.03 170.063L156.922 170.023L156.814 169.984L152.014 183.372ZM192.69 235.937H178.468V236.002L178.468 236.067L192.69 235.937ZM193.628 338.564V352.787H207.981L207.85 338.434L193.628 338.564ZM152.64 338.564L138.453 339.56L139.381 352.787H152.64V338.564ZM151.388 320.73L165.576 319.734L162.789 280.029L139.783 312.509L151.388 320.73ZM125.732 310.404L123.001 296.447L122.972 296.453L122.942 296.458L125.732 310.404ZM147.008 297.576L158.728 305.633L158.785 305.55L158.842 305.465L147.008 297.576ZM152.014 274.735L166.079 272.625L163.961 258.508L149.852 260.678L152.014 274.735ZM133.241 276.612L132.406 262.415L132.393 262.416L132.381 262.416L133.241 276.612ZM116.658 277.551L115.948 263.347L115.929 263.348L115.91 263.349L116.658 277.551ZM104.768 279.428L107.853 293.312L108.122 293.252L108.387 293.182L104.768 279.428ZM96.32 284.122L85.3126 275.116L85.0562 275.429L84.818 275.757L96.32 284.122ZM102.578 308.84L96.2174 321.561L96.3057 321.605L96.3947 321.648L102.578 308.84ZM107.897 329.036C93.6384 329.036 84.2558 325.835 78.1432 321.08L60.68 343.533C73.3406 353.38 89.6149 357.48 107.897 357.48V329.036ZM78.1432 321.08C72.0185 316.317 68.1732 309.742 66.9337 300.136L38.7232 303.776C40.8212 320.036 48.0313 333.695 60.68 343.533L78.1432 321.08ZM66.9764 300.505C65.6433 287.507 68.951 280.176 74.3804 275.44L55.6819 254.005C41.5035 266.374 36.6761 283.865 38.6804 303.408L66.9764 300.505ZM74.5078 275.328C81.4703 269.106 92.3708 264.319 108.742 262.249L105.174 234.03C85.2505 236.549 68.1996 242.818 55.5544 254.118L74.5078 275.328ZM108.373 262.291C110.497 262.079 113.551 261.763 117.521 261.345L114.543 233.057C110.587 233.473 107.592 233.783 105.543 233.988L108.373 262.291ZM118.142 261.266C122.363 260.633 125.766 260.086 128.276 259.629L123.187 231.644C121.109 232.022 118.045 232.518 113.922 233.136L118.142 261.266ZM128.07 259.665C130.448 259.269 133.05 258.868 135.878 258.464L131.855 230.306C128.843 230.736 126.021 231.17 123.393 231.608L128.07 259.665ZM135.878 258.464C139.247 257.983 142.691 257.282 145.744 256.137L135.756 229.504C135.472 229.611 134.326 229.953 131.855 230.306L135.878 258.464ZM145.248 256.313C147.519 255.556 150.642 254.353 153.351 252.321L136.284 229.565C136.463 229.431 136.618 229.326 136.741 229.246C136.864 229.166 136.965 229.106 137.038 229.064C137.179 228.984 137.246 228.954 137.215 228.969C137.187 228.982 137.095 229.023 136.926 229.088C136.759 229.153 136.537 229.233 136.253 229.328L145.248 256.313ZM153.923 251.869C158.643 247.935 160.553 242.668 161.314 238.481L133.328 233.393C133.255 233.795 133.495 231.865 135.713 230.017L153.923 251.869ZM161.042 239.679C162.267 235.188 162.365 230.646 161.691 226.265L133.577 230.59C133.737 231.633 133.627 232.097 133.6 232.195L161.042 239.679ZM161.713 226.416C160.696 219.298 156.777 213.71 152.305 209.558L132.95 230.402C133.619 231.023 133.827 231.365 133.834 231.376C133.834 231.376 133.831 231.37 133.825 231.359C133.819 231.348 133.811 231.332 133.8 231.31C133.779 231.266 133.751 231.201 133.72 231.117C133.657 230.944 133.594 230.714 133.554 230.439L161.713 226.416ZM152.684 209.923C147.624 204.863 141.171 201.905 134.5 200.237L127.601 227.832C130.943 228.668 132.208 229.673 132.571 230.036L152.684 209.923ZM134.5 200.237C121.838 197.072 109.258 197.765 98.1828 204.279L112.605 228.796C115.714 226.967 120.239 225.992 127.601 227.832L134.5 200.237ZM98.1828 204.279C86.8212 210.962 80.4392 221.938 77.9711 234.827L105.908 240.176C107.195 233.457 109.782 230.457 112.605 228.796L98.1828 204.279ZM94.9114 223.593L58.3034 215.771L52.3597 243.587L88.9677 251.41L94.9114 223.593ZM69.3603 232.017C71.4122 219.706 78.9856 208.898 95.1381 199.846L81.2317 175.032C59.4203 187.256 45.0915 204.609 41.3028 227.341L69.3603 232.017ZM95.2743 199.768C101.437 196.225 109.19 193.885 118.941 193.176L116.878 164.806C103.684 165.766 91.6205 169.058 81.0955 175.11L95.2743 199.768ZM119.174 193.157C128.798 192.298 138.098 193.491 147.215 196.759L156.814 169.984C143.82 165.325 130.383 163.599 116.645 164.825L119.174 193.157ZM146.998 196.68C158.836 201.142 166.53 206.753 171.273 212.882C175.893 218.853 178.468 226.276 178.468 235.937H206.912C206.912 220.775 202.707 207.026 193.769 195.475C184.953 184.083 172.31 175.822 157.03 170.063L146.998 196.68ZM178.468 236.067L179.407 338.695L207.85 338.434L206.911 235.807L178.468 236.067ZM193.628 324.342H152.64V352.787H193.628V324.342ZM166.827 337.569L165.576 319.734L137.201 321.725L138.453 339.56L166.827 337.569ZM139.783 312.509C131.802 323.775 121.626 329.036 107.897 329.036V357.48C130.881 357.48 149.698 347.721 162.994 328.95L139.783 312.509ZM128.462 324.362C140.905 321.928 151.607 315.991 158.728 305.633L135.288 289.519C133.231 292.511 129.748 295.127 123.001 296.447L128.462 324.362ZM158.842 305.465C165.433 295.578 167.843 284.387 166.079 272.625L137.949 276.845C138.688 281.771 137.761 285.807 135.174 289.687L158.842 305.465ZM149.852 260.678C144.974 261.429 139.175 262.017 132.406 262.415L134.076 290.81C141.491 290.374 148.207 289.71 154.177 288.792L149.852 260.678ZM132.381 262.416C125.519 262.832 120.048 263.142 115.948 263.347L117.368 291.756C121.611 291.543 127.195 291.227 134.101 290.809L132.381 262.416ZM115.91 263.349C110.946 263.61 106.021 264.392 101.149 265.674L108.387 293.182C111.442 292.379 114.443 291.91 117.405 291.754L115.91 263.349ZM101.683 265.545C95.7487 266.864 89.7411 269.703 85.3126 275.116L107.327 293.128C107.191 293.295 107.054 293.427 106.937 293.523C106.88 293.57 106.833 293.604 106.799 293.627C106.783 293.638 106.769 293.646 106.76 293.652C106.752 293.657 106.747 293.66 106.747 293.66C106.752 293.657 107.062 293.488 107.853 293.312L101.683 265.545ZM84.818 275.757C80.8029 281.277 79.5947 287.7 79.5947 293.508H108.039C108.039 292.499 108.148 291.991 108.185 291.854C108.214 291.744 108.152 292.033 107.822 292.487L84.818 275.757ZM79.5947 293.508C79.5947 299.045 80.7083 304.71 83.6588 309.873C86.6623 315.129 91.0712 318.988 96.2174 321.561L108.938 296.119C108.544 295.922 108.385 295.783 108.355 295.755C108.337 295.739 108.337 295.736 108.345 295.746C108.353 295.756 108.357 295.763 108.355 295.761C108.354 295.757 108.337 295.729 108.312 295.664C108.287 295.598 108.249 295.485 108.209 295.316C108.128 294.973 108.039 294.392 108.039 293.508H79.5947ZM96.3947 321.648C106.196 326.379 117.351 326.584 128.521 324.35L122.942 296.458C115.339 297.979 111.058 297.141 108.761 296.032L96.3947 321.648Z" fill="#3E7ED2" mask="url(#path-1-outside-1_174_4)"/>
<mask id="path-4-outside-2_174_4" maskUnits="userSpaceOnUse" x="205" y="270" width="85" height="85" fill="black">
<rect fill="white" x="205" y="270" width="85" height="85"/>
<path d="M247.363 340.129C239.645 340.129 233.074 337.417 227.651 331.994C222.227 326.57 219.516 320 219.516 312.282C219.516 304.772 222.227 298.306 227.651 292.883C233.074 287.459 239.645 284.748 247.363 284.748C254.872 284.748 261.338 287.459 266.762 292.883C272.185 298.306 274.897 304.772 274.897 312.282C274.897 320 272.185 326.57 266.762 331.994C261.338 337.417 254.872 340.129 247.363 340.129Z"/>
</mask>
<path d="M247.363 340.129C239.645 340.129 233.074 337.417 227.651 331.994C222.227 326.57 219.516 320 219.516 312.282C219.516 304.772 222.227 298.306 227.651 292.883C233.074 287.459 239.645 284.748 247.363 284.748C254.872 284.748 261.338 287.459 266.762 292.883C272.185 298.306 274.897 304.772 274.897 312.282C274.897 320 272.185 326.57 266.762 331.994C261.338 337.417 254.872 340.129 247.363 340.129Z" fill="white"/>
<path d="M227.651 331.994L217.594 342.05L217.594 342.05L227.651 331.994ZM227.651 292.883L217.594 282.826L217.594 282.826L227.651 292.883ZM266.762 292.883L276.818 282.826L276.818 282.826L266.762 292.883ZM266.762 331.994L276.818 342.05L276.818 342.05L266.762 331.994ZM247.363 325.907C243.39 325.907 240.445 324.675 237.707 321.937L217.594 342.05C225.703 350.16 235.899 354.351 247.363 354.351V325.907ZM237.707 321.937C234.97 319.2 233.738 316.254 233.738 312.282H205.293C205.293 323.745 209.485 333.941 217.594 342.05L237.707 321.937ZM233.738 312.282C233.738 308.634 234.887 305.759 237.707 302.939L217.594 282.826C209.567 290.853 205.293 300.911 205.293 312.282H233.738ZM237.707 302.939C240.445 300.202 243.39 298.97 247.363 298.97V270.525C235.899 270.525 225.703 274.717 217.594 282.826L237.707 302.939ZM247.363 298.97C251.011 298.97 253.885 300.119 256.705 302.939L276.818 282.826C268.792 274.799 258.733 270.525 247.363 270.525V298.97ZM256.705 302.939C259.525 305.759 260.675 308.634 260.675 312.282H289.119C289.119 300.911 284.845 290.853 276.818 282.826L256.705 302.939ZM260.675 312.282C260.675 316.254 259.443 319.2 256.705 321.937L276.818 342.05C284.928 333.941 289.119 323.745 289.119 312.282H260.675ZM256.705 321.937C253.885 324.757 251.011 325.907 247.363 325.907V354.351C258.733 354.351 268.792 350.077 276.818 342.05L256.705 321.937Z" fill="#FF8098" mask="url(#path-4-outside-2_174_4)"/>
<mask id="path-7-outside-3_174_4" maskUnits="userSpaceOnUse" x="286" y="164" width="188" height="250" fill="black">
<rect fill="white" x="286" y="164" width="188" height="250"/>
<path d="M301.141 398.952L300.516 183.372L339.627 183.684L341.191 199.955C351.204 185.562 366.639 178.365 387.499 178.365C396.26 178.365 404.916 180.347 413.468 184.31C422.229 188.273 430.26 193.905 437.561 201.206C444.862 208.507 450.494 218.102 454.457 229.992C458.629 241.673 460.193 254.502 459.15 268.477C458.316 280.367 455.708 291.005 451.328 300.392C446.948 309.779 441.524 317.288 435.058 322.92C428.591 328.552 421.916 332.932 415.033 336.061C408.149 339.19 400.953 341.172 393.444 342.006C372.793 344.509 355.584 338.773 341.817 324.797L342.13 398.639L301.141 398.952ZM341.191 260.968C341.191 273.692 344.529 284.226 351.204 292.57C358.087 300.705 367.578 304.877 379.676 305.085C390.315 305.294 399.388 301.122 406.898 292.57C414.616 284.017 418.475 273.379 418.475 260.655C418.475 248.557 414.616 238.231 406.898 229.679C399.18 220.918 389.689 216.746 378.425 217.164C365.075 217.789 355.48 222.483 349.639 231.244C344.007 240.004 341.191 249.913 341.191 260.968Z"/>
</mask>
<path d="M301.141 398.952L300.516 183.372L339.627 183.684L341.191 199.955C351.204 185.562 366.639 178.365 387.499 178.365C396.26 178.365 404.916 180.347 413.468 184.31C422.229 188.273 430.26 193.905 437.561 201.206C444.862 208.507 450.494 218.102 454.457 229.992C458.629 241.673 460.193 254.502 459.15 268.477C458.316 280.367 455.708 291.005 451.328 300.392C446.948 309.779 441.524 317.288 435.058 322.92C428.591 328.552 421.916 332.932 415.033 336.061C408.149 339.19 400.953 341.172 393.444 342.006C372.793 344.509 355.584 338.773 341.817 324.797L342.13 398.639L301.141 398.952ZM341.191 260.968C341.191 273.692 344.529 284.226 351.204 292.57C358.087 300.705 367.578 304.877 379.676 305.085C390.315 305.294 399.388 301.122 406.898 292.57C414.616 284.017 418.475 273.379 418.475 260.655C418.475 248.557 414.616 238.231 406.898 229.679C399.18 220.918 389.689 216.746 378.425 217.164C365.075 217.789 355.48 222.483 349.639 231.244C344.007 240.004 341.191 249.913 341.191 260.968Z" fill="white"/>
<path d="M301.141 398.952L286.919 398.993L286.961 413.283L301.25 413.174L301.141 398.952ZM300.516 183.372L300.629 169.15L286.252 169.035L286.293 183.413L300.516 183.372ZM339.627 183.684L353.784 182.323L352.557 169.565L339.74 169.463L339.627 183.684ZM341.191 199.955L327.034 201.316L330.742 239.88L352.866 208.076L341.191 199.955ZM413.468 184.31L407.489 197.214L407.547 197.241L407.607 197.268L413.468 184.31ZM454.457 229.992L440.965 234.489L441.012 234.633L441.063 234.775L454.457 229.992ZM459.15 268.477L444.967 267.419L444.965 267.45L444.963 267.482L459.15 268.477ZM451.328 300.392L438.44 294.378L438.44 294.378L451.328 300.392ZM435.058 322.92L444.399 333.645L444.399 333.645L435.058 322.92ZM415.033 336.061L420.918 349.009L420.918 349.009L415.033 336.061ZM393.444 342.006L391.873 327.871L391.803 327.879L391.732 327.887L393.444 342.006ZM341.817 324.797L351.949 314.817L327.447 289.943L327.595 324.858L341.817 324.797ZM342.13 398.639L342.238 412.861L356.412 412.753L356.352 398.579L342.13 398.639ZM351.204 292.57L340.098 301.454L340.22 301.607L340.347 301.757L351.204 292.57ZM379.676 305.085L379.955 290.866L379.938 290.866L379.922 290.865L379.676 305.085ZM406.898 292.57L396.339 283.041L396.274 283.113L396.211 283.186L406.898 292.57ZM406.898 229.679L396.226 239.08L396.282 239.144L396.339 239.207L406.898 229.679ZM378.425 217.164L377.899 202.951L377.829 202.954L377.759 202.957L378.425 217.164ZM349.639 231.244L337.806 223.354L337.74 223.453L337.676 223.553L349.639 231.244ZM315.363 398.911L314.738 183.33L286.293 183.413L286.919 398.993L315.363 398.911ZM300.402 197.593L339.513 197.906L339.74 169.463L300.629 169.15L300.402 197.593ZM325.47 185.046L327.034 201.316L355.348 198.593L353.784 182.323L325.47 185.046ZM352.866 208.076C359.691 198.265 370.286 192.588 387.499 192.588V164.143C362.993 164.143 342.716 172.858 329.516 191.833L352.866 208.076ZM387.499 192.588C394.041 192.588 400.666 194.052 407.489 197.214L419.448 171.406C409.167 166.642 398.479 164.143 387.499 164.143V192.588ZM407.607 197.268C414.694 200.474 421.326 205.084 427.504 211.263L447.618 191.15C439.195 182.727 429.765 176.073 419.33 171.352L407.607 197.268ZM427.504 211.263C432.945 216.703 437.552 224.253 440.965 234.489L467.949 225.495C463.435 211.952 456.778 200.311 447.618 191.15L427.504 211.263ZM441.063 234.775C444.485 244.357 445.882 255.167 444.967 267.419L473.333 269.536C474.505 253.836 472.772 238.989 467.851 225.209L441.063 234.775ZM444.963 267.482C444.232 277.892 441.981 286.789 438.44 294.378L464.216 306.406C469.436 295.222 472.399 282.843 473.338 269.473L444.963 267.482ZM438.44 294.378C434.729 302.331 430.407 308.11 425.717 312.195L444.399 333.645C452.641 326.466 459.166 317.227 464.216 306.406L438.44 294.378ZM425.717 312.195C420.152 317.042 414.623 320.625 409.148 323.114L420.918 349.009C429.21 345.24 437.031 340.062 444.399 333.645L425.717 312.195ZM409.148 323.114C403.63 325.622 397.889 327.203 391.873 327.871L395.014 356.141C404.017 355.141 412.669 352.758 420.918 349.009L409.148 323.114ZM391.732 327.887C375.151 329.897 362.412 325.439 351.949 314.817L331.685 334.778C348.756 352.107 370.435 359.121 395.155 356.125L391.732 327.887ZM327.595 324.858L327.908 398.699L356.352 398.579L356.039 324.737L327.595 324.858ZM342.021 384.417L301.033 384.73L301.25 413.174L342.238 412.861L342.021 384.417ZM326.969 260.968C326.969 276.281 331.039 290.13 340.098 301.454L362.309 283.685C358.018 278.322 355.413 271.103 355.413 260.968H326.969ZM340.347 301.757C350.251 313.462 363.853 319.037 379.431 319.305L379.922 290.865C371.303 290.717 365.923 287.947 362.061 283.383L340.347 301.757ZM379.398 319.305C394.546 319.602 407.53 313.405 417.585 301.954L396.211 283.186C391.247 288.839 386.083 290.986 379.955 290.866L379.398 319.305ZM417.456 302.098C427.786 290.652 432.697 276.502 432.697 260.655H404.252C404.252 270.257 401.445 277.383 396.339 283.041L417.456 302.098ZM432.697 260.655C432.697 245.23 427.659 231.457 417.456 220.151L396.339 239.207C401.572 245.006 404.252 251.883 404.252 260.655H432.697ZM417.57 220.278C407.147 208.447 393.602 202.369 377.899 202.951L378.951 231.376C385.776 231.123 391.213 233.39 396.226 239.08L417.57 220.278ZM377.759 202.957C361.24 203.731 346.817 209.837 337.806 223.354L361.473 239.133C364.142 235.128 368.91 231.847 379.091 231.37L377.759 202.957ZM337.676 223.553C330.477 234.751 326.969 247.361 326.969 260.968H355.413C355.413 252.464 357.537 245.258 361.603 238.934L337.676 223.553Z" fill="#F2C94C" mask="url(#path-7-outside-3_174_4)"/>
</svg>
