<svg width="33" height="33" viewBox="0 0 33 33" fill="none" xmlns="http://www.w3.org/2000/svg">
    <path d="M16.5 4.59033C9.87273 4.59033 4.5 9.96306 4.5 16.5903C4.5 18.8076 5.10395 20.8829 6.15341 22.6649L4.61719 28.4177L10.6513 27.068C12.382 28.0361 14.376 28.5903 16.5 28.5903C23.1273 28.5903 28.5 23.2176 28.5 16.5903C28.5 9.96306 23.1273 4.59033 16.5 4.59033ZM16.5 6.77215C21.9224 6.77215 26.3182 11.168 26.3182 16.5903C26.3182 22.0127 21.9224 26.4085 16.5 26.4085C14.4649 26.4085 12.5747 25.7894 11.0071 24.7295L7.65874 25.4785L8.51101 22.2846C7.36392 20.6777 6.68182 18.7154 6.68182 16.5903C6.68182 11.168 11.0776 6.77215 16.5 6.77215ZM12.3942 10.992C12.194 10.992 11.8722 11.066 11.5984 11.3638C11.3295 11.6621 10.5618 12.3788 10.5618 13.8439C10.5618 15.3035 11.622 16.7195 11.771 16.9142C11.9199 17.1144 13.8276 20.2118 16.8516 21.4025C19.3585 22.3897 19.8707 22.1942 20.4194 22.1429C20.9638 22.096 22.1773 21.4267 22.4244 20.7334C22.6709 20.0396 22.6707 19.4446 22.5938 19.3197C22.519 19.1986 22.3237 19.1235 22.0259 18.9746C21.7281 18.8251 20.2671 18.1054 19.9933 18.0072C19.7233 17.9091 19.5232 17.8575 19.3285 18.1553C19.1283 18.4531 18.5608 19.1234 18.3835 19.3187C18.2117 19.5189 18.04 19.5422 17.7422 19.3932C17.4444 19.2443 16.4867 18.9317 15.3516 17.9177C14.4685 17.1317 13.8721 16.1584 13.7003 15.8616C13.5279 15.5644 13.6813 15.4022 13.8303 15.2533C13.9655 15.1235 14.1288 14.9085 14.2777 14.7366C14.4217 14.5599 14.4725 14.4393 14.5707 14.2391C14.6738 14.0444 14.6214 13.8671 14.5472 13.7182C14.4736 13.5687 13.8961 12.0987 13.631 11.5129C13.4085 11.0198 13.1758 11.0054 12.962 11.0005C12.7891 10.9918 12.5889 10.992 12.3942 10.992Z"
          fill="currentColor"/>
</svg>
